<?xml version="1.0" encoding="UTF-8"?>
<svg id="POSE_NORMAL" data-name="POSE NORMAL" xmlns="http://www.w3.org/2000/svg" viewBox="0 0 1592.59 2160">
  <defs>
    <style>
      .cls-1 {
        fill: #fff;
      }

      .cls-2 {
        stroke-width: 17.93px;
      }

      .cls-2, .cls-3, .cls-4, .cls-5, .cls-6, .cls-7 {
        fill: none;
        stroke: #fff;
        stroke-miterlimit: 10;
      }

      .cls-3 {
        stroke-width: 21.52px;
      }

      .cls-4 {
        stroke-width: 12.55px;
      }

      .cls-5 {
        stroke-width: 16.14px;
      }

      .cls-6 {
        stroke-width: 14.35px;
      }

      .cls-7 {
        stroke-width: 26.9px;
      }
    </style>
  </defs>
  <g id="BRAZO_DER." data-name="BRAZO DER.">
    <path class="cls-4" d="m1381.23,1334.3c9.61-7.73,17.41-14.26,22.61-18.67.9-.67,3.2-2.57,4-5.81.95-3.88-1.45-7.82-4.45-11.41-6.42-7.69-28.08-28.19-57.71-54.31-25.62-23.45-51.24-46.91-76.87-70.36,3.76-28.43,7.52-56.87,11.28-85.3,52.71,52.49,101.03,102.16,144.92,148.36,27.01,28.43,56.88,61.44,48.6,88.16-2.65,8.56-16,18.71-42.59,38.67-22.42,16.82-40.71,30.45-68.48,47.02-16.04,9.57-37.07,21.2-62.58,33,6.09,6.85,17.3,21.38,22.08,43,3.29,14.91,2.29,27.61.98,35.74,1.51,1.85,3.01,3.7,4.52,5.56,5.92-4.64,14.73-10.05,26.32-12.56,8.98-1.94,23.07-4.99,30.22,3.12,4.77,5.4,4.69,13.75,2.88,19.39-2.07,6.46-6.82,10.62-12.96,14.57-12.44,8-31,19.95-55.79,16.52-29.94-4.14-46.41-27.58-52.29-35.94-21.49-30.57-24.82-74.77-6.84-105.16,4.17-7.05,24.18-21.34,64.2-49.92,19.1-13.64,34.9-25.13,57.96-43.66Z"/>
    <path class="cls-4" d="m1323.56,1495.59c11.86-10.33,23.25-14,29.7-15.49,3.42-.79,26.17-6.02,31.9,3.29,2.25,3.66,1.2,8.44-.3,15.24-1.57,7.12-4.41,12.53-6.54,15.94"/>
    <path class="cls-4" d="m1317.86,1465.43c4.25-3.82,11.65-9.17,21.91-10.89,6.04-1.02,13-2.19,18.01,2.28,6.73,6,4.27,17.12,4.1,17.82"/>
  </g>
  <g id="BRAZO_IZQ." data-name="BRAZO IZQ.">
    <path class="cls-5" d="m490.34,1045.45c-25.64,1.43-70.47.22-119.12-21.77-21.93-9.91-65.13-29.43-93.25-75.7-7.81-12.85-12.52-24.57-15.36-32.91,6.42-5.9,15.19-15.47,21.21-29.26,9.33-21.35.99-27.5,8.41-44.62,10.94-25.22,35.46-26.7,46.52-54.67,1.7-4.29,3.54-10.38,1.38-16.64-3.71-10.73-16.68-14.62-17.92-14.99-17.12-5.14-41.95,12.72-62.17,43.52-15.65-38.07-22.79-63.2-26.33-80.09-.37-1.77-3.53-16.97-13.17-34.01-7.19-12.72-13.18-17.96-18.65-21.21-3.73-2.21-14.67-8.71-23.77-4.39-6.73,3.2-9.23,10.78-10.33,14.31-4.91,15.68,1.26,29.54,17.65,69.07,3.41,8.24,7.77,18.77,12.8,31.08-13.72-34.81-29.98-58.93-41.69-73.87-7.89-10.08-19.68-23.6-38.06-28.6-5.47-1.49-14.92-3.91-21.89,1.09-9.35,6.7-7.94,22.25-7.61,25.95,1.68,18.61,13.53,29.64,25.2,44.01,10.15,12.5,22.97,30.99,34.32,57.02-6.2-11.86-16.66-28.68-33.64-44.98-13.66-13.11-42.58-40.86-61.8-31.82-11.9,5.6-18.13,24.38-15.36,38.93,2.68,14.07,12.61,18.09,45.34,52.13,10.57,10.99,15.85,16.49,18.28,19.75,23.61,31.61,11.86,58.87,29.62,76.8,20.35,20.54,49.14,25.53,71.31,26.33,17.99,28.42,49.36,69.95,99.84,106.42,75.79,54.76,152.42,67.61,189.8,71.31-.52-22.73-1.04-45.46-1.56-68.2Z"/>
    <path class="cls-1" d="m123.65,819.26c15.07-35.82,62.01-58.68,99.47-48.27-3.91,1.75-9.51,3.81-13.5,5.39-12.77,4.93-25.42,10.04-37.57,15.98-16.67,7.89-32.19,17.72-48.39,26.9h0Z"/>
  </g>
  <path id="CUERPO_AFUERA" data-name="CUERPO AFUERA" class="cls-7" d="m651.96,325.2c-86.68,7.47-145.45,12.53-232.12,20,43.5,427.05,87.01,854.11,130.51,1281.16,219.42.82,438.84,1.63,658.26,2.45,60.29-455.72,120.57-911.44,180.86-1367.15-89.99,7.75-155.9,13.43-245.89,21.19"/>
  <path id="PIERNA_IZQ." data-name="PIERNA IZQ." class="cls-3" d="m805.44,1628.9c8.86,143.05,17.72,286.11,26.59,429.16-65.83-2.95-131.66-5.91-197.49-8.86,1.09-4.65,13.95-55.74,63.3-74.69,34.26-13.16,64.86-2.68,73.08.44-13.81-115.35-27.62-230.7-41.43-346.05h75.96Z"/>
  <path id="PIERNA_DER." data-name="PIERNA DER." class="cls-3" d="m953.5,1628.9c-8.86,143.05-17.72,286.11-26.59,429.16,65.83-2.95,131.66-5.91,197.49-8.86-1.09-4.65-13.95-55.74-63.3-74.69-34.26-13.16-64.86-2.68-73.08.44,13.81-115.35,27.62-230.7,41.43-346.05h-75.96Z"/>
  <g id="COSO">
    <path class="cls-2" d="m959.04,311.45c-91.99,9-183.99,18-275.98,27.01-4.12-30.68-8.24-61.37-12.36-92.05,46.59-7.53,93.18-15.06,139.76-22.59-4.73-6.62-27.44-39.75-16.59-71.85,15.07-44.59,87.73-66.01,134.82-36.71,33.57,20.88,50.23,65.56,40.51,110.77l161.72-2.21c-7.39,36.13-14.78,72.26-22.17,108.38-97.73,5.46-195.47,10.92-293.2,16.38"/>
    <path class="cls-6" d="m862.3,216.53c-12.77-7.61-32.92-26.36-27.85-46.21,5.18-20.3,33.14-27.63,51.27-26.59,16.75.97,43.88,10.16,48.74,33.55,3.33,16.04-5.02,32.93-17.72,41.78-22.47,15.66-49.93.15-54.44-2.53Z"/>
  </g>
  <path class="cls-1" d="m478.36,408.08l112.76,1147.75,577.8,2.23,156.36-1225.64-846.92,75.67Zm162.37,273.15l-.16-1.99c-1.48-18.11-.14-36,3.98-53.2,3.96-16.49,9.38-39.08,28.72-58.36,7.52-7.5,23.18-23.11,48.39-24.76,19.6-1.28,39.33,6.71,55.56,22.49,17.31,16.83,21.83,36.46,27.56,61.31,3.06,13.3,4.93,26.93,5.56,40.53l.09,2-30.87,1.42-.09-2c-.54-11.75-2.16-23.53-4.81-35.02-5.12-22.21-8.21-35.62-18.98-46.1-10.03-9.75-21.09-14.53-32-13.81-13.63.9-23,10.23-28.59,15.81-13.15,13.11-16.88,28.66-20.49,43.69-3.36,14-4.45,28.63-3.23,43.47l.16,1.99-30.8,2.52Zm33.11,89.37c0-32.28,26.26-58.55,58.55-58.55s58.55,26.26,58.55,58.55-26.26,58.55-58.55,58.55-58.55-26.26-58.55-58.55Zm60.61,421.29l7.49-27.4c20.29-74.26,45.16-163.8,69.21-250.4l.04-.15c24.03-86.52,48.88-175.98,69.25-250.52l1.32-4.82,35.6,9.73-1.32,4.82c-20.33,74.39-45.22,164-69.29,250.67-21.13,76.08-42.96,154.66-61.71,222.99l230.8-35.33,5.58,36.48-286.97,43.92Zm332.24-384.27c-32.28,0-58.55-26.26-58.55-58.55s26.26-58.55,58.55-58.55,58.55,26.26,58.55,58.55-26.26,58.55-58.55,58.55Zm87.61-155.24l-.14,2-30.83-2.17.14-2c1.04-14.85-.21-29.46-3.73-43.43-3.78-15-7.69-30.49-20.99-43.45-5.66-5.51-15.13-14.74-28.78-15.48-.19-.01-.39-.02-.58-.03-10.72-.39-21.52,4.53-31.25,14.21-10.66,10.6-13.59,24.04-18.45,46.31-2.52,11.53-4,23.33-4.4,35.07l-.07,2-30.88-1.06.07-2c.47-13.6,2.18-27.26,5.09-40.6,5.44-24.92,9.74-44.61,26.85-61.63,16.05-15.97,35.7-24.18,55.3-23.13,25.23,1.36,41.07,16.79,48.68,24.2,19.56,19.06,25.24,41.58,29.39,58.02,4.33,17.16,5.87,35.04,4.6,53.15Z"/>
</svg>