<?xml version="1.0" encoding="UTF-8"?>
<svg id="POSE_NORMAL" data-name="POSE NORMAL" xmlns="http://www.w3.org/2000/svg" viewBox="0 0 1694.24 2160">
  <defs>
    <style>
      .cls-1 {
        fill: #fff;
      }

      .cls-2 {
        stroke-width: 35.42px;
      }

      .cls-2, .cls-3, .cls-4 {
        fill: none;
        stroke: #fff;
        stroke-miterlimit: 10;
      }

      .cls-3 {
        stroke-width: 18.89px;
      }

      .cls-4 {
        stroke-width: 23.62px;
      }
    </style>
  </defs>
  <path id="CUERPO_AFUERA" data-name="CUERPO AFUERA" class="cls-2" d="m514.38,351.87c-114.13,9.83-191.52,16.5-305.65,26.33,57.28,562.32,114.57,1124.64,171.85,1686.97,288.92,1.07,577.84,2.15,866.76,3.22,79.38-600.06,158.76-1200.13,238.15-1800.19-118.49,10.21-205.28,17.69-323.77,27.9"/>
  <g id="COSO">
    <path class="cls-4" d="m918.73,333.77c-121.13,11.85-242.26,23.71-363.39,35.56-5.42-40.4-10.85-80.8-16.27-121.2,61.34-9.91,122.69-19.83,184.03-29.74-6.22-8.72-36.13-52.33-21.84-94.61,19.85-58.71,115.52-86.91,177.53-48.34,44.21,27.5,66.14,86.33,53.34,145.86,70.98-.97,141.97-1.94,212.95-2.91-9.73,47.57-19.46,95.14-29.19,142.71-128.69,7.19-257.38,14.38-386.08,21.57"/>
    <path class="cls-3" d="m791.34,208.77c-16.82-10.01-43.35-34.71-36.67-60.84,6.83-26.73,43.63-36.38,67.51-35.01,22.06,1.27,57.78,13.38,64.18,44.17,4.39,21.12-6.61,43.36-23.34,55.01-29.59,20.62-65.74.2-71.68-3.33Z"/>
  </g>
  <path class="cls-1" d="m285.8,461l148.47,1511.29,760.81,2.93,205.89-1613.86-1115.18,99.63Zm213.8,359.67l-.21-2.63c-1.95-23.84-.19-47.41,5.24-70.05,5.21-21.72,12.35-51.46,37.81-76.85,9.91-9.88,30.52-30.43,63.72-32.61,25.8-1.68,51.79,8.84,73.16,29.62,22.79,22.16,28.74,48.01,36.29,80.74,4.03,17.51,6.5,35.47,7.32,53.37l.12,2.63-40.65,1.87-.12-2.63c-.71-15.47-2.84-30.98-6.33-46.11-6.74-29.25-10.81-46.9-25-60.7-13.2-12.84-27.77-19.13-42.13-18.19-17.95,1.18-30.28,13.47-37.65,20.82-17.32,17.26-22.23,37.73-26.98,57.53-4.43,18.44-5.86,37.7-4.26,57.24l.22,2.62-40.55,3.32Zm43.6,117.68c0-42.51,34.58-77.09,77.09-77.09s77.09,34.58,77.09,77.09-34.58,77.09-77.09,77.09-77.09-34.58-77.09-77.09Zm79.81,554.73l9.86-36.08c26.72-97.79,59.47-215.69,91.14-329.71l.05-.19c31.64-113.92,64.36-231.72,91.18-329.87l1.74-6.35,46.87,12.81-1.74,6.35c-26.77,97.95-59.54,215.95-91.24,330.06-27.83,100.18-56.56,203.65-81.26,293.62l303.9-46.52,7.35,48.03-377.87,57.84Zm437.47-505.98c-42.51,0-77.09-34.58-77.09-77.09s34.58-77.09,77.09-77.09,77.09,34.58,77.09,77.09-34.58,77.09-77.09,77.09Zm115.36-204.41l-.19,2.63-40.59-2.85.19-2.63c1.38-19.55-.28-38.79-4.92-57.18-4.98-19.75-10.13-40.15-27.64-57.21-7.45-7.26-19.92-19.41-37.89-20.38-.26-.01-.51-.03-.77-.03-14.12-.51-28.34,5.96-41.15,18.71-14.03,13.96-17.89,31.66-24.29,60.98-3.31,15.18-5.26,30.72-5.79,46.18l-.09,2.63-40.67-1.4.09-2.63c.61-17.91,2.87-35.89,6.7-53.45,7.16-32.82,12.82-58.73,35.35-81.15,21.13-21.02,47.01-31.83,72.81-30.46,33.22,1.8,54.07,22.11,64.09,31.87,25.76,25.09,33.24,54.75,38.7,76.4,5.7,22.59,7.73,46.14,6.06,69.99Z"/>
</svg>