<?xml version="1.0" encoding="UTF-8"?>
<svg id="MIRANDO_RELOJ" data-name="MIRANDO RELOJ" xmlns="http://www.w3.org/2000/svg" viewBox="0 0 1445.76 2160">
  <defs>
    <style>
      .cls-1 {
        fill: #fff;
      }

      .cls-2 {
        stroke-width: 17.93px;
      }

      .cls-2, .cls-3, .cls-4, .cls-5, .cls-6 {
        fill: none;
        stroke: #fff;
        stroke-miterlimit: 10;
      }

      .cls-3 {
        stroke-width: 21.52px;
      }

      .cls-4 {
        stroke-width: 12.55px;
      }

      .cls-5 {
        stroke-width: 14.35px;
      }

      .cls-6 {
        stroke-width: 12px;
      }
    </style>
  </defs>
  <path id="PIERNA_IZQ." data-name="PIERNA IZQ." class="cls-3" d="m631.2,1628.96c8.86,143.05,17.72,286.11,26.59,429.16-65.83-2.95-131.66-5.91-197.49-8.86,1.09-4.65,13.95-55.74,63.3-74.69,34.26-13.16,64.86-2.68,73.08.44-13.81-115.35-27.62-230.7-41.43-346.05h75.96Z"/>
  <path id="PIERNA_DER." data-name="PIERNA DER." class="cls-3" d="m779.27,1628.96c-8.86,143.05-17.72,286.11-26.59,429.16,65.83-2.95,131.66-5.91,197.49-8.86-1.09-4.65-13.95-55.74-63.3-74.69-34.26-13.16-64.86-2.68-73.08.44,13.81-115.35,27.62-230.7,41.43-346.05h-75.96Z"/>
  <g id="COSO">
    <path class="cls-2" d="m784.81,311.52c-91.99,9-183.99,18-275.98,27.01-4.12-30.68-8.24-61.37-12.36-92.05,46.59-7.53,93.18-15.06,139.76-22.59-4.73-6.62-27.44-39.75-16.59-71.85,15.07-44.59,87.73-66.01,134.82-36.71,33.57,20.88,50.23,65.56,40.51,110.77l161.72-2.21c-7.39,36.13-14.78,72.26-22.17,108.38-97.73,5.46-195.47,10.92-293.2,16.38"/>
    <path class="cls-5" d="m688.06,216.59c-12.77-7.61-32.92-26.36-27.85-46.21,5.18-20.3,33.14-27.63,51.27-26.59,16.75.97,43.88,10.16,48.74,33.55,3.33,16.04-5.02,32.93-17.72,41.78-22.47,15.66-49.93.15-54.44-2.53Z"/>
  </g>
  <g id="BRAZO_DER.-2" data-name="BRAZO DER.">
    <path class="cls-4" d="m1207,1334.37c9.61-7.73,17.41-14.26,22.61-18.67.9-.67,3.2-2.57,4-5.81.95-3.88-1.45-7.82-4.45-11.41-6.42-7.69-28.08-28.19-57.71-54.31-25.62-23.45-51.24-46.91-76.87-70.36,3.76-28.43,7.52-56.87,11.28-85.3,52.71,52.49,101.03,102.16,144.92,148.36,27.01,28.43,56.88,61.44,48.6,88.16-2.65,8.56-16,18.71-42.59,38.67-22.42,16.82-40.71,30.45-68.48,47.02-16.04,9.57-37.07,21.2-62.58,33,6.09,6.85,17.3,21.38,22.08,43,3.29,14.91,2.29,27.61.98,35.74,1.51,1.85,3.01,3.7,4.52,5.56,5.92-4.64,14.73-10.05,26.32-12.56,8.98-1.94,23.07-4.99,30.22,3.12,4.77,5.4,4.69,13.75,2.88,19.39-2.07,6.46-6.82,10.62-12.96,14.57-12.44,8-31,19.95-55.79,16.52-29.94-4.14-46.41-27.58-52.29-35.94-21.49-30.57-24.82-74.77-6.84-105.16,4.17-7.05,24.18-21.34,64.2-49.92,19.1-13.64,34.9-25.13,57.96-43.66Z"/>
    <path class="cls-4" d="m1149.32,1495.66c11.86-10.33,23.25-14,29.7-15.49,3.42-.79,26.17-6.02,31.9,3.29,2.25,3.66,1.2,8.44-.3,15.24-1.57,7.12-4.41,12.53-6.54,15.94"/>
    <path class="cls-4" d="m1143.63,1465.49c4.25-3.82,11.65-9.17,21.91-10.89,6.04-1.02,13-2.19,18.01,2.28,6.73,6,4.27,17.12,4.1,17.82"/>
  </g>
  <path class="cls-1" d="m968.19,269.51l2.31,26.8,229.2-19.75-177.11,1338.82-634.32-2.36-26.49-260c-9.12-.6-18.22-1.42-27.29-2.47l29.47,289.28,670.37,2.49,11.83.04,184.61-1395.49-262.57,22.62Z"/>
  <path class="cls-1" d="m346.36,1201.67l-85.99-844.17,218.51-18.83-2.31-26.8-245.74,21.17,87.28,856.78c10.11,2.78,19.62,6.78,28.25,11.84Z"/>
  <g>
    <path class="cls-1" d="m217.43,1306.06c-2.24-2.38-4.29-4.83-6.18-7.33-5.06-1.72-10.1-3.54-15.05-5.48-41.96-16.47-65.64-36.57-70.38-59.74-2.46-12.03-.25-25.66,18.32-56.4,35.64-59,87.73-109.81,154.91-151.12l7.42,83.75c-25.93,13.08-48.09,30.51-62.69,49.39-11.79,15.24-18.01,30.45-18.21,44,3.3-2.35,6.85-4.52,10.64-6.48.77-.4,1.56-.77,2.34-1.14,1.98-9.04,6.97-19.03,14.71-29.04,14.18-18.33,36.25-35.3,62.14-47.76l3.74-1.8-9.83-111.05-8.2,4.86c-72.87,43.19-129.14,97.09-167.25,160.18-18.03,29.84-23.39,47.46-19.8,65.01,8.69,42.46,64.75,66.75,115.59,81.08-4.42-3.34-8.52-6.99-12.22-10.93Z"/>
    <path class="cls-1" d="m625.8,1380.46c-.99-5.13-2.55-10.1-4.62-14.88,3.5-14.3,8.1-45.84-9.66-73.02-.22-.34-.45-.68-.68-1.02,1.28-10.84.82-26.12-7.15-41.31-5.58-10.63-15.25-19.36-22.38-24.8-8.7-6.65-35.19-26.88-75.17-26.88-5.1,0-50.68.92-81.9,32.36-5.65,5.69-8.91,10.46-11.53,14.28-3.38,4.94-5.61,8.2-11.45,11.57-3.78,2.18-7.7,3.65-11.88,4.51.47,4.02.55,8.07.24,12.12,6.07-.99,11.97-2.96,17.65-6.24,8.2-4.74,11.67-9.81,15.35-15.19,2.46-3.6,5.26-7.69,10.14-12.6,27.8-28,68.81-28.82,73.39-28.82,35.92,0,59.98,18.38,67.89,24.42,6.17,4.71,14.47,12.15,19.04,20.84,3.98,7.59,5.68,15.26,6.16,22.15-6.95-6.58-13.86-11.06-18.37-13.98-10.04-6.5-20.91-11.49-32.42-14.88-4.13-1.22-8.34-2.24-12.61-3.03l-2.21,11.79s0,0,.01,0c3.94.74,7.82,1.68,11.61,2.8,9.25,2.76,18.08,6.68,26.38,11.72,10.69,6.5,20.17,14.67,28.18,24.3.57.79,1.13,1.6,1.67,2.44,11.14,17.05,11.95,36.43,10.37,50.54-5.87-7.77-13.28-14.7-21.94-20.51-9.93-6.95-20.96-11.92-32.82-14.79l-3,11.62c10.71,2.93,20.41,7.34,28.77,12.89.89.62,1.77,1.26,2.64,1.91,9.9,7.46,18.21,17.21,24.03,28.2l.16.3c1.97,4.32,3.43,8.82,4.33,13.47.57,2.93,5.08,29.21-10.86,48.58-9.11,11.06-18.83,16.68-26.02,15.02-8.74-2.01-14.9-14.41-17.17-21.41-1.12-3.46-1.38-6.02-1.65-8.72-.36-3.57-.77-7.62-3.1-13.25-1.73-4.19-4.05-8.14-6.93-11.81,4.57-1.05,8.75-2.26,12.46-3.5l-3.27-11.53-22.64,5.31-.06.02c-13.4,1.83-29.41,1.75-46.85-2.92-36.05-9.65-57.32-33.36-66.79-46.63l-1.88-2.63-3.23.12c-21.38.79-42.79.25-64.07-1.57-.64.35-1.28.69-1.93,1.02-7.07,3.65-14.76,6.45-22.85,8.36,28.48,3.74,57.31,5.19,86.1,4.29,11.22,14.9,34.14,38.62,71.53,48.63,18.31,4.9,35.17,5.22,49.48,3.49,4.42,4.16,7.71,8.84,9.82,13.94,1.65,4,1.92,6.6,2.25,9.88.31,3.06.66,6.53,2.18,11.21,1.92,5.94,9.47,25.63,25.89,29.41,1.85.43,3.67.62,5.46.62,14.01,0,26.13-11.96,32.52-19.71,19.03-23.12,14.48-52.77,13.38-58.48Z"/>
  </g>
  <ellipse class="cls-6" cx="293.12" cy="1262.74" rx="63" ry="83.46" transform="translate(-1001 1338.1) rotate(-80.26)"/>
  <ellipse class="cls-1" cx="293.12" cy="1262.74" rx="17.29" ry="14.47"/>
  <path class="cls-1" d="m282.86,1261.84c-11.14-7.76-22.27-15.53-33.41-23.29-.75,4.71-1.49,9.41-2.24,14.12-3.06-8.51-6.12-17.02-9.18-25.53,10,.47,20,.94,30,1.41-4.47,2.24-8.94,4.47-13.41,6.71,11.14,5.96,22.27,11.92,33.41,17.88-1.73,2.9-3.45,5.8-5.18,8.71Z"/>
  <path class="cls-1" d="m304.13,408.14l82.63,841.08c3.47-.58,6.46-1.68,9.25-3.29,3.38-1.95,4.31-3.31,7.38-7.8,2.76-4.03,6.52-9.54,12.98-16.04,34.79-35.03,85.14-36.05,90.77-36.05,44.21,0,73.23,22.16,82.76,29.45,8.13,6.21,19.22,16.27,25.86,28.93,8.45,16.1,9.71,32.15,8.92,44,16.75,27.75,14.36,58.09,10.56,76.12,1.66,4.42,2.95,8.96,3.83,13.55,1.29,6.68,6.59,41.36-16,68.8-9.12,11.07-23.83,24.27-42.17,24.27-2.78,0-5.56-.32-8.27-.94-22.83-5.26-32.54-30.22-34.98-37.75-1.92-5.93-2.38-10.47-2.72-13.79-.29-2.88-.41-4.06-1.37-6.38-.81-1.96-1.91-3.86-3.27-5.67-16.08,1.21-32.09-.29-47.7-4.46-37.28-9.98-61.42-32.6-74.22-48.05-3.77.07-7.53.09-11.3.09l19.81,201.68,577.8,2.23,156.36-1225.64-846.92,75.67Zm202.37,519.4c-36.76,0-66.67-50.24-66.67-112s29.91-112,66.67-112,66.67,50.24,66.67,112-29.91,112-66.67,112Zm53.14-234.95c-2.65-4.8-6.3-11.12-10.94-18.35-22.36-34.83-49.95-77.81-75.53-74.47-26.49,3.46-42.06,55.48-45.88,83.65-1.64,12.07-1.49,22.45-.94,30.12-8.31,10.04-16.63,20.08-24.94,30.12-1.04-8.51-2.24-20.48-2.82-34.82-2.82-69.55,8.99-194.75,51.29-204.35,43.4-9.85,112.83,103.38,143.24,184.24,1.49,3.95,2.69,7.34,3.58,9.88-12.35-2-24.71-4-37.06-6Zm42.77,518.07l3.23-28.22c8.77-76.48,19.74-168.76,30.35-258.01l.02-.15c10.6-89.17,21.56-181.37,30.36-258.13l.57-4.97,36.66,4.2-.57,4.97c-8.78,76.61-19.76,168.97-30.38,258.29-9.32,78.41-18.95,159.39-27.1,229.78l201.6-63.03,11.06,35.2-255.81,80.07Zm263.54-345.85c-22.58,0-40.95-18.37-40.95-40.95s18.37-40.95,40.95-40.95,40.95,18.37,40.95,40.95-18.37,40.95-40.95,40.95Zm38.51-142.58c-39.53,6.35-79.06,12.71-118.59,19.06,42.71-25.76,85.41-51.53,128.12-77.29,18.58,33.59,37.16,67.19,55.73,100.78-21.75-14.18-43.51-28.37-65.26-42.55Z"/>
</svg>