<?xml version="1.0" encoding="UTF-8"?>
<svg id="LOGO_1" data-name="LOGO 1" xmlns="http://www.w3.org/2000/svg" viewBox="0 0 3840 1793.93">
  <defs>
    <style>
      .cls-1, .cls-2 {
        fill: #fff;
      }

      .cls-3 {
        fill: #19f124;
      }

      .cls-2 {
        font-family: Afacad-Medium, Afacad;
        font-size: 644.81px;
        font-variation-settings: 'wght' 500;
        font-weight: 500;
        letter-spacing: .05em;
      }
    </style>
  </defs>
  <g id="Oscuro">
    <g id="Grande">
      <g>
        <path class="cls-3" d="m776.15,74.68c-215.23,0-389.7,174.48-389.7,389.7v878.07c0,44.09,35.74,79.82,79.82,79.82h0c44.09,0,79.82-35.74,79.82-79.82V464.39c0-127.05,103-230.05,230.05-230.05s230.05,103,230.05,230.05v878.07c0,44.09,35.74,79.82,79.82,79.82h0c44.09,0,79.82-35.74,79.82-79.82V464.39c0-215.23-174.48-389.7-389.7-389.7Z"/>
        <path class="cls-1" d="m463.68,1732.83c215.23,0,389.7-174.48,389.7-389.7V465.06c0-44.09-35.74-79.82-79.82-79.82h0c-44.09,0-79.82,35.74-79.82,79.82v399.12s0,164.4,0,164.4v314.55c0,127.05-103,230.05-230.05,230.05-127.05,0-230.05-103-230.05-230.05v-314.55s0-164.4,0-164.4v-399.12c0-44.09-35.74-79.82-79.82-79.82h0c-44.09,0-79.82,35.74-79.82,79.82v878.07c0,215.23,174.48,389.7,389.7,389.7Z"/>
        <text class="cls-2" transform="translate(1427.11 1117.43)"><tspan x="0" y="0">SIGELED</tspan></text>
      </g>
    </g>
  </g>
</svg>