<?xml version="1.0" encoding="UTF-8"?>
<svg id="BLANCO_RAPIDO_FLUIDO_LARGO" xmlns="http://www.w3.org/2000/svg" viewBox="0 0 2160 2160">
    <defs>
        <style>
            .cls-1 { stroke-width: 15px; }
            .cls-1, .cls-2 {
                fill: none;
                stroke: #FFFFFF; 
                stroke-miterlimit: 300;
                stroke-linecap: round; 
            }
            .cls-2 { stroke-width: 30px; }

            /* --- CAMBIOS AQUÍ --- */

            .outer-path {
                /* ANTES: 2500 1500 */
                /* AHORA: 3600 de línea, 400 de hueco. 
                   Total = 4000. La línea es mucho más larga. */
                stroke-dasharray: 3000 1000; 
                animation: flujoRapidoOuter 3.2s linear infinite;
            }

            .inner-line {
                /* ANTES: 300 300 */
                /* AHORA: 450 de línea, 150 de hueco.
                   Total = 600. */
                stroke-dasharray: 400 200;
                animation: flujoRapidoInner 3.3s linear infinite;
            }

            /* KEYFRAMES: Movimiento perpetuo (No cambian porque la suma total es la misma) */
            
            @keyframes flujoRapidoOuter {
                from { stroke-dashoffset: 0; }
                to { stroke-dashoffset: -4000; } 
            }

            @keyframes flujoRapidoInner {
                from { stroke-dashoffset: 0; }
                to { stroke-dashoffset: -600; } 
            }

            #inner-lines-group line:nth-child(1) { animation-delay: 0.0s; }
            #inner-lines-group line:nth-child(2) { animation-delay: 0.05s; }
            #inner-lines-group line:nth-child(3) { animation-delay: 0.10s; }
            #inner-lines-group line:nth-child(4) { animation-delay: 0.15s; }
            #inner-lines-group line:nth-child(5) { animation-delay: 0.20s; }
            #inner-lines-group line:nth-child(6) { animation-delay: 0.25s; }
            #inner-lines-group line:nth-child(7) { animation-delay: 0.30s; }
            #inner-lines-group line:nth-child(8) { animation-delay: 0.35s; }
            #inner-lines-group line:nth-child(9) { animation-delay: 0.40s; }
            #inner-lines-group line:nth-child(10) { animation-delay: 0.45s; }
            #inner-lines-group line:nth-child(11) { animation-delay: 0.50s; }
            #inner-lines-group line:nth-child(12) { animation-delay: 0.55s; }
            #inner-lines-group line:nth-child(13) { animation-delay: 0.60s; }
            #inner-lines-group line:nth-child(14) { animation-delay: 0.65s; }
            #inner-lines-group line:nth-child(15) { animation-delay: 0.70s; }
            #inner-lines-group line:nth-child(16) { animation-delay: 0.75s; }
            #inner-lines-group line:nth-child(17) { animation-delay: 0.80s; }
            #inner-lines-group line:nth-child(18) { animation-delay: 0.85s; }
            #inner-lines-group line:nth-child(19) { animation-delay: 0.90s; }
            #inner-lines-group line:nth-child(20) { animation-delay: 0.95s; }
            #inner-lines-group line:nth-child(21) { animation-delay: 1.00s; }

        </style>
    </defs>
    
    <path class="cls-2 outer-path" d="m1278.16,28.41c-272.99,0-494.3,221.3-494.3,494.3v1113.74c0,55.92,45.33,101.25,101.25,101.25h0c55.92,0,101.25-45.33,101.25-101.25V522.71c0-161.16,130.64-291.8,291.8-291.8s291.8,130.64,291.8,291.8v1113.74c0,55.92,45.33,101.25,101.25,101.25h0c55.92,0,101.25-45.33,101.25-101.25V522.71c0-272.99-221.3-494.3-494.3-494.3Z"/>
    <path class="cls-2 outer-path" d="m881.84,2131.59c272.99,0,494.3-221.3,494.3-494.3V523.56c0-55.92-45.33-101.25-101.25-101.25h0c-55.92,0-101.25,45.33-101.25,101.25v506.25s0,208.52,0,208.52v398.98c0,161.16-130.64,291.8-291.8,291.8-161.16,0-291.8-130.64-291.8-291.8v-398.98s0-208.52,0-208.52v-506.25c0-55.92-45.33-101.25-101.25-101.25h0c-55.92,0-101.25,45.33-101.25,101.25v1113.74c0,272.99,221.3,494.3,494.3,494.3Z"/>
    
    <g id="inner-lines-group">
        <line class="cls-1 inner-line" x1="783.86" y1="1613.42" x2="986.36" y2="1613.42" />
        <line class="cls-1 inner-line" x1="1574.39" y1="1613.42" x2="1776.88" y2="1613.42" />
        <line class="cls-1 inner-line" x1="779.38" y1="1463.42" x2="986.36" y2="1463.42" />
        <line class="cls-1 inner-line" x1="1569.9" y1="1463.42" x2="1776.88" y2="1463.42" />
        <line class="cls-1 inner-line" x1="783.86" y1="1313.42" x2="986.36" y2="1313.42" />
        <line class="cls-1 inner-line" x1="1572.15" y1="1313.42" x2="1774.64" y2="1313.42" />
        <line class="cls-1 inner-line" x1="779.38" y1="1163.42" x2="986.36" y2="1163.42" />
        <line class="cls-1 inner-line" x1="1569.9" y1="1163.42" x2="1776.88" y2="1163.42" />
        <line class="cls-1 inner-line" x1="783.86" y1="1013.42" x2="986.36" y2="1013.42" />
        <line class="cls-1 inner-line" x1="1572.15" y1="1013.42" x2="1774.64" y2="1013.42" />
        <line class="cls-1 inner-line" x1="783.86" y1="863.42" x2="986.36" y2="863.42" />
        <line class="cls-1 inner-line" x1="1572.15" y1="863.42" x2="1774.64" y2="863.42" />
        <line class="cls-1 inner-line" x1="779.38" y1="713.42" x2="986.36" y2="713.42" />
        <line class="cls-1 inner-line" x1="1569.9" y1="713.42" x2="1776.88" y2="713.42" />
        <line class="cls-1 inner-line" x1="779.38" y1="563.42" x2="977.51" y2="563.42" />
        <line class="cls-1 inner-line" x1="1574.33" y1="563.42" x2="1772.46" y2="563.42" />
        <line class="cls-1 inner-line" x1="789.6" y1="413.42" x2="1007.52" y2="413.42" />
        <line class="cls-1 inner-line" x1="1554.53" y1="413.42" x2="1772.46" y2="413.42" />
        <line class="cls-1 inner-line" x1="850.32" y1="263.42" x2="1139.89" y2="263.42" />
        <line class="cls-1 inner-line" x1="1416.88" y1="263.42" x2="1706.45" y2="263.42" />
        <line class="cls-1 inner-line" x1="994.66" y1="113.42" x2="1561.66" y2="113.42" />
    </g>
</svg>