<?xml version="1.0" encoding="UTF-8"?>
<svg id="LOGO_1" data-name="LOGO 1" xmlns="http://www.w3.org/2000/svg" viewBox="0 0 1508.1 2160">
  <defs>
    <style>
      .cls-1 {
        fill: #fff;
      }

      .cls-2 {
        fill: #19f124;
      }
    </style>
  </defs>
  <g id="Oscuro">
    <g id="SIMBOLO">
      <path class="cls-2" d="m952.21,28.41c-272.99,0-494.3,221.3-494.3,494.3v1113.74c0,55.92,45.33,101.25,101.25,101.25h0c55.92,0,101.25-45.33,101.25-101.25V522.71c0-161.16,130.64-291.8,291.8-291.8s291.8,130.64,291.8,291.8v1113.74c0,55.92,45.33,101.25,101.25,101.25h0c55.92,0,101.25-45.33,101.25-101.25V522.71c0-272.99-221.3-494.3-494.3-494.3Z"/>
      <path class="cls-1" d="m555.89,2131.59c272.99,0,494.3-221.3,494.3-494.3V523.56c0-55.92-45.33-101.25-101.25-101.25h0c-55.92,0-101.25,45.33-101.25,101.25v506.25s0,208.52,0,208.52v398.98c0,161.16-130.64,291.8-291.8,291.8-161.16,0-291.8-130.64-291.8-291.8v-398.98s0-208.52,0-208.52v-506.25c0-55.92-45.33-101.25-101.25-101.25h0c-55.92,0-101.25,45.33-101.25,101.25v1113.74c0,272.99,221.3,494.3,494.3,494.3Z"/>
    </g>
  </g>
</svg>